<svg xmlns="http://www.w3.org/2000/svg" xmlns:xlink="http://www.w3.org/1999/xlink" width="3000" height="2580" viewBox="0 0 3000 2580">
  <defs>
    <clipPath id="clip-Logo">
      <rect width="3000" height="2580"/>
    </clipPath>
  </defs>
  <g id="Logo" clip-path="url(#clip-Logo)">
    <g id="Group_9" data-name="Group 9" transform="translate(-48.903 -182.655)">
      <g id="Group_6" data-name="Group 6" transform="translate(130.89 1267.567)">
        <path id="Path_2" data-name="Path 2" d="M316.95,553.319c0-123.749,16.628-197.629,86.837-197.629,48.037,0,114.551,24.011,166.283,46.176l33.256-271.508C533.118,100.806,470.3,86.03,366.835,86.03,122.954,86.03,6.556,291.046,6.556,566.248c0,269.66,114.55,445.124,354.736,445.124,86.837,0,149.655-16.61,227.253-42.479L555.289,732.478c-57.275,12.928-105.312,20.317-151.5,20.317C331.706,752.795,316.95,686.3,316.95,553.319ZM629.193,749.1c0,160.688,77.6,262.272,225.405,262.272,114.55,0,168.13-35.092,210.625-94.208h9.238c27.714,72.02,92.38,94.208,173.673,94.208,46.19,0,64.666-3.718,118.246-7.388L1394.093,780.5c-55.428,0-77.6-11.082-77.6-59.1,0-127.442,9.238-267.813,9.238-382.326,0-171.771-75.751-253.039-269.748-253.039-133.026,0-277.138,27.706-406.469,60.952l46.19,269.66c103.465-29.552,214.32-53.563,277.138-53.563,36.952,0,51.732,22.163,51.732,51.716v44.328C778.847,481.286,629.193,531.155,629.193,749.1Zm339.956,46.174c-38.8,0-57.275-24.011-57.275-68.339,0-64.644,40.647-83.114,125.636-94.208v90.49C1037.509,773.111,1015.338,795.274,969.148,795.274ZM2661.537,86.03c-112.7,0-173.673,44.328-223.558,86.81h-7.39V-191.018H2122.042V992.9h310.394V396.326c22.171-16.625,55.427-25.858,86.836-25.858,27.714,0,40.647,18.47,40.647,46.174V992.9h314.089V311.364C2874.009,169.144,2820.429,86.03,2661.537,86.03Z" transform="translate(-6.556 191.018)" fill="#e9e431"/>
      </g>
      <g id="Group_7" data-name="Group 7" transform="translate(87.622 270.655)">
        <path id="Path_1" data-name="Path 1" d="M771.568,966.694V712.325H453.057L762.671,36.382l-8.9-174.323H2.87L20.664,137.775H364.087L38.458,803.068l7.118,163.625ZM1260.9,93.3c-254.453,0-371.893,129.854-371.893,444.7,0,311.291,112.1,446.481,371.893,446.481,258.012,0,364.776-131.632,364.776-458.933C1625.677,223.151,1513.575,93.3,1260.9,93.3Zm-1.779,240.141c64.058,0,69.4,40.906,69.4,186.775V571.8c0,151.229-8.9,190.333-65.838,190.333-69.4,0-74.735-40.907-74.735-201.005V518.434c0-144.085,7.118-185,71.176-185ZM2401.493,134.21l17.793-272.158H1803.628V966.694h304.277V534.444h236.659V299.64H2107.893V134.21Zm423.5,832.484V123.537H2531.407V966.694ZM2517.147-47.229c0,92.5,44.485,135.19,161.925,135.19,113.881,0,158.365-44.471,158.365-135.19,0-94.278-44.484-138.747-158.365-138.747C2561.638-185.976,2517.147-141.5,2517.147-47.229Z" transform="translate(-2.87 185.976)" fill="#e9e431"/>
      </g>
      <path id="Path_3" data-name="Path 3" d="M0,408.4c0,281.833,314.906,270.33,314.906,373.861,0,35.948-17.255,53.2-54.641,53.2-60.393,0-120.786-15.817-220.027-44.576L24.445,1005.134a783.756,783.756,0,0,0,171.113,37.386v103.506H385.364V1033.893C504.712,1002.283,567.98,904.48,567.98,760.687c0-270.33-313.468-277.52-313.468-358.043C254.513,365.258,280.4,348,322.07,348c47.452,0,115.034,14.379,195.558,33.072l28.759-230.068a1566.31,1566.31,0,0,0-161.023-21.594V0H195.558V135.165C70.458,166.824,0,268.917,0,408.4Z" transform="translate(1478.059 1545.713) rotate(-10)" fill="#e9e431"/>
    </g>
  </g>
</svg>
